<?xml version="1.0" encoding="UTF-8"?>
<svg width="48px" height="43px" viewBox="0 0 48 43" version="1.1" xmlns="http://www.w3.org/2000/svg" xmlns:xlink="http://www.w3.org/1999/xlink">
    <!-- Generator: Sketch 48.2 (47327) - http://www.bohemiancoding.com/sketch -->
    <title>upload-apprenticeships</title>
    <desc>Created with Sketch.</desc>
    <defs></defs>
    <g id="Artboard-2" stroke="none" stroke-width="1" fill="none" fill-rule="evenodd" transform="translate(-105.000000, -222.000000)">
        <g id="upload-apprenticeships" transform="translate(105.000000, 212.000000)">
            <path d="M14.8677288,14.9578617 L8.38399956,39.4871713 L33.089952,32.9998191 L39.5736813,8.47050956 L14.8677288,14.9578617 Z" id="Rectangle-2" stroke="#000000" stroke-width="2" transform="translate(23.978840, 23.978840) rotate(-315.000000) translate(-23.978840, -23.978840) "></path>
            <path d="M11.1022393,40.1764705 L19.4102621,48.4844933 L33.9926844,44.6688007 L37.7885802,30.1063753 L29.4979389,21.791977 L25.732567,36.3400361 L11.1022393,40.1764705 Z" id="Rectangle-2" stroke="#000000" stroke-width="2" transform="translate(24.031640, 34.721118) rotate(-315.000000) translate(-24.031640, -34.721118) "></path>
            <g id="Group-8" transform="translate(29.000000, 35.000000)">
                <circle id="Oval-4" stroke="#000000" stroke-width="2" fill="#FFFFFF" cx="8.5" cy="8.5" r="8.5"></circle>
                <g id="Group-11" transform="translate(2.500000, 2.000000)" fill="#000000">
                    <g id="Group-12" transform="translate(0.200012, 0.000000)">
                        <rect id="Rectangle-5" transform="translate(3.500000, 4.000000) rotate(-45.000000) translate(-3.500000, -4.000000) " x="0" y="3" width="7" height="2" rx="1"></rect>
                        <rect id="Rectangle-5" transform="translate(7.181981, 4.181981) scale(-1, 1) rotate(-45.000000) translate(-7.181981, -4.181981) " x="3.68198052" y="3.18198052" width="7" height="2" rx="1"></rect>
                    </g>
                    <rect id="Rectangle-5" transform="translate(5.500000, 7.000000) scale(-1, 1) rotate(-90.000000) translate(-5.500000, -7.000000) " x="2" y="6" width="7" height="2" rx="1"></rect>
                </g>
            </g>
            <path d="M18.9290132,18 L6,25.6053019" id="Line" stroke="#000000" stroke-width="2" stroke-linecap="square"></path>
            <path d="M6,26 L6.12187803,40.9995048" id="Line" stroke="#000000" stroke-width="2" stroke-linecap="square"></path>
            <circle id="Oval" stroke="#000000" stroke-width="2" cx="6" cy="42.5" r="1.5"></circle>
        </g>
    </g>
</svg>