<?xml version="1.0" encoding="UTF-8"?>
<svg width="39px" height="43px" viewBox="0 0 39 43" version="1.1" xmlns="http://www.w3.org/2000/svg" xmlns:xlink="http://www.w3.org/1999/xlink">
    <!-- Generator: Sketch 48.2 (47327) - http://www.bohemiancoding.com/sketch -->
    <title>view-courses</title>
    <desc>Created with Sketch.</desc>
    <defs></defs>
    <g id="Artboard-2" stroke="none" stroke-width="1" fill="none" fill-rule="evenodd" transform="translate(-538.000000, -557.000000)">
        <g id="view-courses" transform="translate(538.000000, 557.000000)">
            <g id="Group-7">
                <path d="M1,1 L1,38 C1,39.6568542 2.34314575,41 4,41 L29,41 L29,1 L1,1 Z" id="Combined-Shape" stroke="#000000" stroke-width="2"></path>
                <path d="M29,41 L29,35 L4,35 C2.34314575,35 1,36.3431458 1,38 C1,39.6568542 2.34314575,41 4,41 L29,41 Z" id="Rectangle-11" stroke="#000000" stroke-width="2"></path>
                <rect id="Rectangle-5" fill="#000000" x="7" y="10" width="16" height="2" rx="1"></rect>
                <rect id="Rectangle-5" fill="#000000" x="7" y="14" width="16" height="2" rx="1"></rect>
                <rect id="Rectangle-5" fill="#000000" x="7" y="18" width="16" height="2" rx="1"></rect>
            </g>
            <g id="Group-8" transform="translate(20.000000, 24.000000)" fill="#FFFFFF" stroke="#000000" stroke-width="2">
                <circle id="Oval-4" cx="6.5" cy="6.5" r="6.5"></circle>
            </g>
            <rect id="Rectangle-8" fill="#000000" transform="translate(34.242641, 38.242641) rotate(-45.000000) translate(-34.242641, -38.242641) " x="33.2426407" y="33.2426407" width="2" height="10" rx="1"></rect>
        </g>
    </g>
</svg>